<?xml version="1.0" encoding="UTF-8" standalone="no"?>
<svg xmlns="http://www.w3.org/2000/svg" viewBox="0 0 5597.917725 1794.185067" preserveAspectRatio="xMidYMid meet">
  <g transform="translate(-761.997881,1932.839300) scale(0.100000,-0.100000)" fill="#1a2647" stroke="none" fill-rule="evenodd">
    <path d="M51615 19318 c-97 -10 -296 -60 -385 -95 -178 -70 -331 -173 -481
-322 -311 -312 -489 -745 -489 -1193 0 -435 163 -806 483 -1104 367 -340 912
-502 1428 -424 73 11 151 25 173 31 396 105 713 307 919 584 80 109 174 294
216 428 113 363 98 739 -46 1112 -138 356 -406 659 -727 822 -141 72 -393 142
-578 162 -114 13 -398 12 -513 -1z"/>
    <path d="M28700 19310 c-336 -8 -385 -13 -400 -40 -25 -46 -41 -1818 -49
-5405 -6 -2592 -6 -2638 -24 -2525 -10 63 -24 140 -32 170 -8 30 -28 114 -46
185 -164 676 -547 1398 -1038 1957 -122 138 -370 387 -506 505 -613 534 -1419
942 -2210 1120 -193 43 -251 54 -485 88 -306 44 -801 57 -1150 30 -377 -30
-592 -64 -960 -152 -256 -61 -579 -164 -790 -253 -41 -17 -88 -36 -105 -42
-63 -23 -376 -178 -510 -252 -569 -318 -1047 -742 -1442 -1276 -453 -615 -780
-1349 -914 -2055 -28 -146 -36 -183 -38 -165 0 9 -6 87 -11 175 -13 194 -49
416 -96 587 -143 521 -373 1035 -650 1453 -435 656 -1050 1184 -1778 1530
-242 115 -526 225 -711 275 -547 149 -1394 226 -1875 170 -556 -65 -1278 -324
-1760 -631 -217 -139 -325 -224 -600 -478 -139 -128 -176 -157 -181 -143 -3 9
-9 114 -13 232 -3 118 -11 278 -16 355 -5 77 -12 206 -16 288 l-6 147 -1334 0
-1334 0 0 -1895 0 -1895 1488 0 1487 0 35 97 c104 286 314 610 531 818 343
329 743 515 1262 590 251 35 556 36 803 0 94 -13 189 -29 210 -34 21 -5 68
-17 103 -25 249 -62 517 -182 726 -325 329 -225 616 -635 788 -1126 163 -462
201 -1020 106 -1520 -31 -165 -39 -194 -90 -355 -161 -501 -463 -934 -824
-1181 -118 -80 -278 -167 -390 -210 -27 -11 -59 -24 -70 -29 -162 -75 -584
-160 -870 -175 -281 -14 -618 36 -895 132 -346 121 -714 395 -984 733 -127
159 -180 245 -290 466 -94 189 -155 296 -178 310 -42 26 -134 -220 -183 -491
-9 -49 -20 -103 -25 -120 -5 -16 -19 -97 -30 -180 -11 -82 -24 -179 -30 -215
-22 -154 -33 -462 -22 -618 58 -753 460 -1419 1137 -1882 185 -126 442 -260
665 -347 151 -58 414 -140 510 -158 19 -4 71 -15 115 -25 44 -11 166 -31 270
-47 183 -27 204 -28 585 -28 378 0 403 2 585 28 341 49 614 115 930 223 55 19
109 39 120 44 11 5 67 27 125 50 146 58 365 166 490 242 557 340 1181 949
1509 1473 83 130 197 359 321 640 148 335 261 733 306 1070 30 229 32 251 40
360 5 61 10 99 12 85 11 -83 69 -364 97 -470 98 -372 198 -637 370 -982 91
-182 103 -203 213 -388 519 -867 1246 -1528 2102 -1910 63 -28 129 -57 145
-65 238 -107 741 -254 1044 -305 69 -12 128 -23 131 -25 4 -2 90 -14 191 -25
101 -12 220 -26 264 -31 130 -16 810 -23 1005 -10 167 10 611 56 638 66 7 3
65 14 130 25 465 79 941 239 1363 458 908 472 1744 1367 2169 2322 28 63 55
124 60 135 31 69 84 209 124 330 90 267 128 419 194 770 6 32 10 -651 11
-1917 l1 -1968 1411 0 1411 0 -6 2923 c-3 1607 -8 3561 -11 4342 -5 1259 -4
1417 9 1395 9 -14 20 -41 27 -60 6 -19 17 -48 25 -65 7 -16 33 -82 59 -145 25
-63 50 -124 55 -135 5 -11 30 -72 55 -135 25 -63 50 -124 55 -135 5 -11 30
-72 55 -135 25 -63 50 -124 55 -135 5 -11 34 -81 64 -155 134 -331 198 -486
206 -505 5 -11 41 -99 80 -195 67 -166 96 -236 140 -340 11 -25 74 -178 140
-340 67 -162 127 -308 135 -325 19 -43 128 -307 192 -465 30 -74 84 -207 120
-295 36 -88 79 -194 95 -235 16 -41 43 -106 58 -145 15 -38 41 -104 57 -145
17 -41 44 -109 61 -150 17 -41 61 -151 97 -245 147 -376 177 -452 196 -500 70
-184 89 -235 89 -241 0 -3 7 -20 15 -37 7 -18 36 -93 64 -167 27 -74 54 -146
60 -160 5 -14 40 -101 76 -195 36 -93 70 -179 75 -190 5 -11 33 -78 61 -150
28 -71 64 -161 79 -200 28 -72 123 -304 166 -407 55 -133 74 -178 116 -283 25
-60 54 -130 66 -155 11 -25 29 -67 40 -95 24 -61 229 -552 242 -580 9 -20 67
-160 165 -400 29 -71 74 -179 100 -240 27 -65 44 -119 41 -131 -8 -32 -229
-481 -268 -545 -224 -368 -599 -725 -923 -878 -121 -58 -261 -97 -450 -127
-149 -23 -209 -27 -487 -31 l-318 -5 0 -1219 0 -1219 358 0 c643 0 985 29
1372 116 873 196 1581 595 2255 1269 405 405 546 606 840 1195 130 259 335
686 335 696 0 2 17 43 39 91 21 49 62 144 90 213 29 69 61 145 71 170 22 52
123 311 150 385 10 28 33 86 50 130 17 44 51 134 75 200 24 66 63 170 85 230
23 61 50 133 60 160 32 89 68 188 98 270 16 44 55 152 87 240 31 88 70 194 85
235 15 41 64 179 110 305 45 127 95 264 110 305 15 41 75 210 135 375 59 165
120 334 135 375 15 41 100 280 190 530 90 250 176 491 192 535 16 44 42 116
57 160 51 145 303 848 333 930 16 44 38 105 48 135 10 30 32 91 48 135 72 197
418 1167 439 1230 13 39 27 79 33 90 5 11 80 218 166 460 87 242 169 474 184
515 15 41 66 183 114 315 48 132 119 331 159 442 40 112 74 203 77 203 5 0 68
-160 155 -390 20 -52 47 -123 61 -157 13 -34 24 -64 24 -68 0 -4 7 -21 15 -38
14 -32 49 -124 86 -227 10 -30 23 -64 29 -75 5 -11 21 -51 35 -90 75 -204 118
-319 150 -405 20 -52 47 -124 60 -160 13 -36 42 -114 65 -175 23 -60 46 -121
50 -135 5 -14 25 -68 45 -120 20 -52 47 -124 60 -160 13 -36 51 -139 85 -230
33 -91 81 -219 105 -285 24 -66 60 -163 80 -215 20 -52 58 -156 85 -230 27
-74 77 -209 110 -300 33 -91 81 -221 105 -290 25 -69 50 -134 55 -145 6 -11
21 -51 34 -90 14 -38 38 -106 54 -150 16 -44 50 -136 75 -205 25 -69 76 -206
112 -305 36 -99 86 -234 110 -300 24 -66 63 -169 85 -230 23 -60 61 -164 85
-230 24 -66 60 -163 80 -215 20 -52 56 -149 80 -215 24 -66 60 -163 80 -215
20 -52 56 -149 80 -215 24 -66 60 -163 80 -215 55 -147 88 -234 138 -370 25
-69 62 -168 82 -220 20 -52 45 -120 56 -150 11 -30 26 -69 34 -87 8 -17 15
-34 15 -38 0 -4 11 -34 24 -68 14 -34 58 -152 100 -262 41 -110 102 -272 136
-360 33 -88 81 -214 106 -280 25 -66 51 -133 58 -150 8 -16 21 -52 30 -80 9
-27 20 -57 26 -65 8 -12 91 -16 562 -22 304 -4 861 -12 1238 -17 377 -6 861
-11 1077 -11 l391 0 31 88 c16 48 43 123 59 167 132 363 194 534 272 750 162
444 251 692 403 1115 107 296 243 673 339 935 28 77 63 174 78 215 51 141 129
355 190 520 74 202 191 522 265 730 30 85 60 164 65 175 5 11 30 76 55 145 24
69 72 199 105 290 34 91 85 233 115 315 30 83 82 224 115 315 63 169 75 203
128 350 17 47 42 117 57 155 15 39 37 99 50 135 13 36 38 103 55 150 17 47 42
114 55 150 32 88 56 154 105 285 23 61 50 135 60 165 11 30 35 98 55 150 20
52 58 156 85 230 27 74 77 209 110 300 33 91 83 226 110 300 27 74 74 203 105
285 31 83 78 211 105 285 27 74 63 171 79 215 17 44 55 148 85 230 l55 150 0
-4647 1 -4648 1375 0 1375 0 1 1888 c1 1841 1 1884 19 1777 53 -332 190 -795
316 -1073 13 -29 24 -55 24 -58 0 -8 153 -313 186 -370 223 -391 467 -714 778
-1033 456 -465 953 -817 1466 -1036 285 -122 693 -240 965 -280 55 -8 123 -19
150 -24 193 -36 934 -51 1185 -23 490 55 923 178 1335 382 351 174 568 327
960 679 104 94 193 171 197 171 5 0 8 -185 8 -411 0 -586 -3 -577 231 -619
179 -31 482 -41 1489 -47 l936 -6 13 124 c31 297 38 1510 21 3639 -5 646 -14
2176 -20 3400 -6 1224 -13 2281 -16 2349 l-6 124 -447 -7 c-351 -5 -2205 -35
-2232 -36 -4 0 -9 -190 -13 -422 -6 -426 -11 -518 -32 -525 -14 -5 -90 58
-312 255 -229 203 -327 277 -580 436 -47 30 -338 175 -392 196 -19 7 -48 19
-65 26 -171 75 -453 158 -712 209 -745 149 -1544 102 -2238 -130 -458 -154
-781 -320 -1249 -645 -12 -8 -85 -65 -162 -127 -462 -367 -887 -844 -1161
-1303 -141 -234 -280 -518 -344 -700 -10 -30 -23 -64 -29 -75 -11 -23 -66
-190 -103 -315 -56 -187 -128 -515 -149 -681 -11 -90 -14 168 -18 1866 l-5
1970 -1372 3 -1373 2 0 -21 c0 -18 -4 -20 -37 -15 -201 33 -1044 32 -2599 0
l-281 -6 -176 -527 c-97 -289 -205 -611 -241 -716 -35 -104 -119 -359 -186
-565 -67 -206 -141 -433 -164 -505 -24 -71 -73 -224 -110 -340 -37 -115 -76
-235 -86 -265 -10 -30 -46 -143 -80 -250 -35 -107 -84 -262 -110 -345 -27 -82
-76 -238 -110 -345 -34 -107 -70 -220 -80 -250 -10 -30 -34 -109 -55 -175 -20
-66 -42 -138 -50 -160 -7 -22 -34 -110 -60 -195 -26 -85 -53 -173 -60 -195 -8
-22 -30 -94 -50 -160 -20 -66 -42 -138 -50 -160 -7 -22 -34 -110 -60 -195 -26
-85 -53 -173 -60 -195 -7 -22 -28 -87 -45 -145 -18 -58 -43 -139 -55 -180 -13
-41 -40 -129 -60 -195 -20 -66 -42 -138 -50 -160 -8 -22 -23 -74 -35 -115 -26
-89 -30 -97 -40 -79 -4 8 -148 433 -319 944 -507 1517 -937 2798 -1276 3800
-80 237 -204 603 -275 815 -71 212 -165 491 -209 620 l-80 235 -548 7 c-1013
14 -3181 31 -4013 32 l-825 1 -71 -215 c-39 -118 -138 -417 -219 -665 -82
-247 -203 -616 -270 -820 -67 -203 -191 -579 -275 -835 -220 -669 -513 -1547
-710 -2130 -95 -278 -182 -536 -195 -575 -48 -145 -127 -371 -141 -402 -8 -17
-14 -36 -14 -42 0 -6 -15 -51 -33 -99 -19 -48 -47 -122 -63 -165 -16 -42 -33
-76 -39 -74 -18 5 -68 121 -170 387 -19 52 -41 106 -47 120 -5 14 -21 54 -34
90 -12 36 -39 108 -59 160 -20 52 -59 158 -87 235 -27 77 -63 174 -78 215 -15
41 -64 176 -108 300 -45 124 -120 331 -167 460 -47 129 -109 298 -137 375
-116 321 -188 518 -268 735 -33 91 -94 257 -135 370 -41 113 -104 286 -140
385 -37 99 -86 234 -110 300 -25 66 -72 194 -105 285 -34 91 -72 194 -84 230
-13 36 -28 76 -34 90 -6 14 -32 81 -56 150 -81 224 -96 265 -106 285 -5 11
-30 76 -55 145 -24 69 -60 168 -80 220 -20 52 -56 149 -80 215 -24 66 -57 154
-72 195 l-29 75 -1114 3 c-640 2 -1215 -2 -1349 -7 -129 -6 -236 -9 -237 -8
-2 1 -8 925 -15 2052 -6 1128 -13 2052 -15 2053 -12 15 -1913 33 -2324 22z
m29925 -6401 c202 -17 435 -70 602 -135 34 -13 64 -24 68 -24 14 0 276 -135
347 -179 191 -117 411 -313 564 -501 334 -412 526 -932 565 -1529 44 -679
-166 -1359 -567 -1841 -68 -82 -249 -262 -329 -326 -226 -184 -641 -391 -870
-435 -213 -40 -561 -50 -865 -24 -225 19 -301 31 -432 65 -309 81 -553 235
-894 564 -422 406 -600 751 -674 1307 -31 232 -37 903 -10 1168 35 340 237
765 521 1096 363 423 764 662 1271 756 256 47 469 59 703 38z m-34995 -103
c145 -23 274 -69 483 -175 384 -194 635 -390 860 -671 267 -333 435 -727 504
-1180 20 -132 23 -533 5 -670 -93 -701 -465 -1398 -939 -1758 -267 -203 -548
-318 -923 -378 -147 -24 -193 -27 -425 -27 -230 0 -281 3 -445 26 -333 48
-560 119 -814 255 -325 175 -580 418 -793 757 -276 440 -396 924 -380 1534 7
253 16 335 53 501 130 582 480 1104 956 1428 148 100 268 164 526 278 45 21
248 62 369 75 286 31 781 33 963 5z"/>
    <path d="M7622 6088 l3 -4683 85 -8 c141 -14 724 -14 815 0 44 7 130 20 190
28 261 36 535 123 775 245 536 274 910 738 1087 1350 65 222 97 403 124 705
13 141 6 685 -10 790 -6 39 -18 124 -27 190 -37 279 -155 678 -384 1305 -15
41 -40 109 -55 150 -15 41 -36 98 -45 125 -10 28 -37 100 -59 160 -38 101
-144 412 -186 545 -16 51 -43 146 -78 280 -105 398 -146 766 -126 1130 9 179
15 227 49 408 52 284 188 720 315 1007 7 17 27 64 44 105 18 41 39 90 47 109
14 32 98 256 129 346 8 22 30 94 50 160 21 66 45 146 55 178 l19 57 -1410 0
-1409 0 2 -4682z"/>
  </g>
</svg>
